<svg version="1" xmlns="http://www.w3.org/2000/svg" width="586.667" height="586.667" viewBox="0 0 440.000000 440.000000"><path d="M201 2c-34.8 3.4-69.3 15.2-98.5 33.8C84.6 47.3 62.4 67.2 49 84 1.8 143.2-11.5 222.1 13.6 294.1 40.5 371.6 111.8 428.8 194 439c13 1.6 44.3 1.3 57.3-.6 62.7-9 116.9-43.4 153-97.2 7-10.4 19.4-35.3 23.5-47.3 14-40.2 16.1-85.4 5.7-126.4-21.8-86.4-93.6-151.1-181.7-164C238.3 1.6 213.5.8 201 2zm40 105.9c0 .5-11 9-24.5 18.7C203 136.4 192 144.7 192 145c0 .3 3.1 2.9 6.9 5.8 3.9 2.9 8.3 6.8 10 8.7 1.6 1.8 3.1 3.2 3.3 2.9.3-.2 2.2 1.1 4.4 3l3.9 3.4 4.4-3.9c9.6-8.5 25.1-12.9 45.7-12.9 41.2 0 68.6 17.5 75 48 1.2 5.7 1.4 17.2 1.2 63.7l-.3 56.8h-50L296 265c-.5-55.2-.5-55.5-2.8-60.5-2.8-6.1-4.7-8.2-9.4-10.6-9.2-4.7-23.6-3-30.2 3.5-7 7.1-7 6.8-7.6 68.1l-.5 55h-50L195 265l-.5-55.5-2.4-5.3c-1.3-2.9-3.7-6.4-5.3-7.7-1.6-1.4-2.7-2.9-2.3-3.4.3-.6-2 .5-5.1 2.4-8 4.8-19 9.2-26.7 10.7l-6.6 1.2-.1 56c0 30.8-.4 56.4-.8 56.8-.5.5-12.1.7-25.8.6l-24.9-.3-.3-49.5c-.4-56.2.1-68 2.6-68 1 0 1.3-.3.6-.8-.5-.4-1.1-1.6-1.1-2.7-.1-1.1-.4-7.7-.8-14.6l-.8-12.6-25-.7c-20.1-.6-25.2-.5-25.8.6-.5.7-.9 10.1-.9 20.8 0 15.5.4 21.4 2 29 2.5 12 4.2 32.5 3.8 45.5l-.3 10-3.2-8.5c-5.9-15.8-6.7-19.7-6.8-32 0-6.4.6-13.5 1.3-16 .8-2.9 1.3-12.4 1.5-27.1l.2-22.6-3.9.5c-9.3 1.2-1.3-4.1 29.5-19.8 49.6-25.1 82.5-34.1 162.4-44.3 6.1-.8 11.5-.7 11.5.2z"/><path d="M209 166c-.6 1.1-.8 2-.6 2 .3 0 1-.9 1.6-2 .6-1.1.8-2 .6-2-.3 0-1 .9-1.6 2zM205.9 170.7c-1.3 1.6-1.2 1.7.4.4 1.6-1.3 2.1-2.1 1.3-2.1-.2 0-1 .8-1.7 1.7zM202.9 174.7c-1.3 1.6-1.2 1.7.4.4.9-.7 1.7-1.5 1.7-1.7 0-.8-.8-.3-2.1 1.3zM195.5 183.2l-5 5.3 5.3-5c4.8-4.6 5.7-5.5 4.9-5.5-.1 0-2.5 2.4-5.2 5.2zM186.9 190.7c-1.3 1.6-1.2 1.7.4.4.9-.7 1.7-1.5 1.7-1.7 0-.8-.8-.3-2.1 1.3zM116.8 207.7c.6.2 1.8.2 2.5 0 .6-.3.1-.5-1.3-.5-1.4 0-1.9.2-1.2.5zM128.3 208.7c2.6.2 6.7.2 9 0s.2-.3-4.8-.3c-4.9 0-6.8.1-4.2.3z"/></svg>